<?xml version="1.0" encoding="UTF-8" standalone="no"?>
<!DOCTYPE svg PUBLIC "-//W3C//DTD SVG 1.1//EN" "http://www.w3.org/Graphics/SVG/1.1/DTD/svg11.dtd">
<svg width="100%" height="100%" viewBox="0 0 205 47" version="1.1" xmlns="http://www.w3.org/2000/svg" xmlns:xlink="http://www.w3.org/1999/xlink" xml:space="preserve" xmlns:serif="http://www.serif.com/" style="fill-rule:evenodd;clip-rule:evenodd;stroke-linejoin:round;stroke-miterlimit:2;">
    <g transform="matrix(1,0,0,1,-145.706,-3658.67)">
        <g transform="matrix(1,0,0,0.659373,0,950.611)">
            <g id="Logo" transform="matrix(0.668305,0,0,0.668305,-218.363,1012.07)">
                <g transform="matrix(1.05746,0,0,1.00951,224.073,228.363)">
                    <rect x="501.134" y="4372.19" width="91.122" height="91.122" style="fill:rgb(255,247,149);"/>
                </g>
                <g transform="matrix(0.724676,0,0,1.09904,591.142,4623.22)">
                    <g transform="matrix(77.8556,0,0,77.8556,36.5735,87.5388)">
                        <path d="M0.073,0L0.073,-0.716L0.377,-0.716C0.454,-0.716 0.51,-0.709 0.544,-0.697C0.579,-0.684 0.607,-0.661 0.627,-0.628C0.648,-0.595 0.659,-0.557 0.659,-0.515C0.659,-0.461 0.643,-0.417 0.611,-0.382C0.58,-0.347 0.533,-0.325 0.47,-0.316C0.501,-0.298 0.527,-0.278 0.547,-0.256C0.567,-0.234 0.595,-0.195 0.629,-0.14L0.717,0L0.544,0L0.439,-0.156C0.402,-0.211 0.377,-0.247 0.363,-0.261C0.35,-0.275 0.335,-0.285 0.32,-0.291C0.305,-0.296 0.28,-0.299 0.247,-0.299L0.218,-0.299L0.218,0L0.073,0ZM0.218,-0.413L0.325,-0.413C0.394,-0.413 0.437,-0.416 0.455,-0.422C0.472,-0.428 0.485,-0.438 0.495,-0.452C0.505,-0.466 0.51,-0.484 0.51,-0.506C0.51,-0.53 0.503,-0.549 0.49,-0.564C0.478,-0.579 0.459,-0.588 0.436,-0.592C0.424,-0.594 0.389,-0.595 0.331,-0.595L0.218,-0.595L0.218,-0.413Z" style="fill-rule:nonzero;"/>
                    </g>
                    <g transform="matrix(77.8556,0,0,77.8556,88.9055,87.5388)">
                        <path d="M0.072,-0.589L0.072,-0.716L0.209,-0.716L0.209,-0.589L0.072,-0.589ZM0.072,0L0.072,-0.519L0.209,-0.519L0.209,0L0.072,0Z" style="fill-rule:nonzero;"/>
                    </g>
                    <g transform="matrix(77.8556,0,0,77.8556,106.644,87.5388)">
                        <path d="M0.059,0.034L0.216,0.053C0.218,0.071 0.224,0.084 0.234,0.091C0.247,0.101 0.267,0.105 0.295,0.105C0.331,0.105 0.358,0.1 0.376,0.089C0.388,0.082 0.397,0.071 0.403,0.055C0.408,0.043 0.41,0.022 0.41,-0.008L0.41,-0.084C0.369,-0.028 0.317,0 0.254,0C0.185,0 0.13,-0.029 0.089,-0.088C0.057,-0.135 0.041,-0.193 0.041,-0.262C0.041,-0.349 0.062,-0.416 0.104,-0.461C0.146,-0.507 0.198,-0.53 0.26,-0.53C0.324,-0.53 0.377,-0.502 0.418,-0.446L0.418,-0.519L0.547,-0.519L0.547,-0.053C0.547,0.008 0.542,0.054 0.532,0.084C0.522,0.114 0.507,0.138 0.489,0.155C0.471,0.173 0.447,0.186 0.416,0.196C0.386,0.206 0.347,0.21 0.301,0.21C0.213,0.21 0.151,0.195 0.114,0.165C0.077,0.135 0.059,0.097 0.059,0.051C0.059,0.046 0.059,0.041 0.059,0.034ZM0.182,-0.27C0.182,-0.215 0.192,-0.175 0.214,-0.149C0.235,-0.124 0.261,-0.111 0.292,-0.111C0.326,-0.111 0.354,-0.124 0.377,-0.15C0.401,-0.176 0.412,-0.215 0.412,-0.267C0.412,-0.32 0.401,-0.36 0.379,-0.386C0.357,-0.412 0.329,-0.425 0.295,-0.425C0.262,-0.425 0.235,-0.413 0.214,-0.387C0.192,-0.361 0.182,-0.322 0.182,-0.27Z" style="fill-rule:nonzero;"/>
                    </g>
                    <g transform="matrix(77.8556,0,0,77.8556,150.308,87.5388)">
                        <path d="M0.208,-0.716L0.208,-0.453C0.253,-0.504 0.306,-0.53 0.367,-0.53C0.399,-0.53 0.427,-0.524 0.453,-0.513C0.478,-0.501 0.497,-0.486 0.51,-0.468C0.523,-0.45 0.532,-0.429 0.536,-0.407C0.541,-0.385 0.543,-0.351 0.543,-0.304L0.543,0L0.406,0L0.406,-0.274C0.406,-0.328 0.404,-0.363 0.398,-0.377C0.393,-0.392 0.384,-0.404 0.371,-0.412C0.358,-0.421 0.341,-0.425 0.321,-0.425C0.299,-0.425 0.278,-0.42 0.26,-0.409C0.242,-0.398 0.229,-0.381 0.221,-0.359C0.213,-0.336 0.208,-0.303 0.208,-0.26L0.208,0L0.071,0L0.071,-0.716L0.208,-0.716Z" style="fill-rule:nonzero;"/>
                    </g>
                    <g transform="matrix(77.8556,0,0,77.8556,193.973,87.5388)">
                        <path d="M0.31,-0.519L0.31,-0.409L0.216,-0.409L0.216,-0.2C0.216,-0.158 0.217,-0.133 0.219,-0.126C0.22,-0.119 0.224,-0.113 0.231,-0.109C0.237,-0.104 0.245,-0.102 0.254,-0.102C0.267,-0.102 0.285,-0.106 0.309,-0.115L0.321,-0.009C0.289,0.005 0.253,0.012 0.212,0.012C0.188,0.012 0.165,0.008 0.146,-0.001C0.126,-0.009 0.111,-0.02 0.102,-0.033C0.093,-0.046 0.086,-0.064 0.083,-0.086C0.08,-0.102 0.078,-0.135 0.078,-0.183L0.078,-0.409L0.015,-0.409L0.015,-0.519L0.078,-0.519L0.078,-0.622L0.216,-0.702L0.216,-0.519L0.31,-0.519Z" style="fill-rule:nonzero;"/>
                    </g>
                    <g transform="matrix(77.8556,0,0,77.8556,216.006,87.5388)">
                        <path d="M0.073,0L0.073,-0.716L0.305,-0.716C0.393,-0.716 0.45,-0.712 0.477,-0.705C0.518,-0.694 0.552,-0.671 0.58,-0.635C0.607,-0.599 0.621,-0.553 0.621,-0.496C0.621,-0.452 0.613,-0.415 0.597,-0.385C0.581,-0.355 0.561,-0.331 0.536,-0.314C0.512,-0.297 0.487,-0.286 0.461,-0.28C0.427,-0.273 0.377,-0.27 0.312,-0.27L0.217,-0.27L0.217,0L0.073,0ZM0.217,-0.595L0.217,-0.392L0.296,-0.392C0.353,-0.392 0.391,-0.395 0.411,-0.403C0.43,-0.41 0.445,-0.422 0.456,-0.438C0.467,-0.454 0.472,-0.472 0.472,-0.494C0.472,-0.52 0.465,-0.541 0.449,-0.558C0.434,-0.575 0.415,-0.586 0.391,-0.59C0.374,-0.593 0.339,-0.595 0.287,-0.595L0.217,-0.595Z" style="fill-rule:nonzero;"/>
                    </g>
                    <g transform="matrix(77.8556,0,0,77.8556,264.043,87.5388)">
                        <path d="M0.372,-0.165L0.509,-0.142C0.491,-0.092 0.463,-0.054 0.426,-0.028C0.388,-0.001 0.34,0.012 0.283,0.012C0.193,0.012 0.126,-0.018 0.083,-0.077C0.049,-0.124 0.032,-0.183 0.032,-0.255C0.032,-0.341 0.054,-0.409 0.099,-0.457C0.144,-0.506 0.201,-0.53 0.27,-0.53C0.347,-0.53 0.408,-0.505 0.452,-0.454C0.497,-0.403 0.518,-0.325 0.516,-0.22L0.172,-0.22C0.173,-0.179 0.184,-0.147 0.206,-0.125C0.227,-0.102 0.253,-0.091 0.285,-0.091C0.306,-0.091 0.324,-0.097 0.339,-0.108C0.354,-0.12 0.365,-0.139 0.372,-0.165ZM0.38,-0.304C0.379,-0.343 0.369,-0.374 0.349,-0.394C0.33,-0.415 0.306,-0.425 0.278,-0.425C0.248,-0.425 0.223,-0.414 0.204,-0.393C0.184,-0.371 0.174,-0.341 0.175,-0.304L0.38,-0.304Z" style="fill-rule:nonzero;"/>
                    </g>
                    <g transform="matrix(77.8556,0,0,77.8556,303.449,87.5388)">
                        <path d="M0.31,-0.519L0.31,-0.409L0.216,-0.409L0.216,-0.2C0.216,-0.158 0.217,-0.133 0.219,-0.126C0.22,-0.119 0.224,-0.113 0.231,-0.109C0.237,-0.104 0.245,-0.102 0.254,-0.102C0.267,-0.102 0.285,-0.106 0.309,-0.115L0.321,-0.009C0.289,0.005 0.253,0.012 0.212,0.012C0.188,0.012 0.165,0.008 0.146,-0.001C0.126,-0.009 0.111,-0.02 0.102,-0.033C0.093,-0.046 0.086,-0.064 0.083,-0.086C0.08,-0.102 0.078,-0.135 0.078,-0.183L0.078,-0.409L0.015,-0.409L0.015,-0.519L0.078,-0.519L0.078,-0.622L0.216,-0.702L0.216,-0.519L0.31,-0.519Z" style="fill-rule:nonzero;"/>
                    </g>
                </g>
                <g transform="matrix(0.417452,0,0,0.633105,374.841,1902.91)">
                    <path d="M473.286,4348.57L530.044,4428.54C530.044,4428.54 534.358,4425.81 546.68,4416.06C556.782,4408.06 556.629,4386.03 556.629,4386.03C556.629,4386.03 583.913,4404.08 557.816,4423.02C533.286,4440.82 533.057,4448.32 533.057,4448.32L460.027,4448.32C460.027,4448.32 463.815,4435.7 473.496,4435.7L485.703,4435.7L470.129,4414.7L450.767,4448.32L426.812,4448.32C426.812,4448.32 428.225,4435.94 441.609,4435.94L458.322,4405.69C458.322,4405.69 449.408,4397.02 446.364,4390.68C443.319,4384.33 447.483,4374.59 447.483,4374.59C447.483,4374.59 424.568,4370.28 424.568,4351.8L443.876,4351.8C443.876,4351.8 445.613,4342.32 452.234,4342.32C458.855,4342.32 455.951,4342.32 455.951,4342.32C455.951,4342.32 446.728,4331.26 453.229,4326.67L473.286,4348.57Z" style="fill:white;"/>
                    <path d="M450.767,4465.84L426.812,4465.84C421.82,4465.84 417.065,4463.71 413.741,4459.99C410.418,4456.27 408.84,4451.3 409.406,4446.34C409.406,4446.34 411.338,4425.91 430.396,4420.01L437.037,4407.99C434.496,4404.79 432.034,4401.31 430.57,4398.26C428.712,4394.39 427.844,4389.96 427.764,4385.58L427.108,4385.2C416.78,4379.1 407.049,4368.46 407.049,4351.8C407.049,4342.12 414.893,4334.28 424.568,4334.28L433.074,4334.28L433.513,4333.75L433.403,4332.27C433.317,4327.99 433.964,4323.81 436.056,4320.03C440.913,4311.28 451.676,4306.32 461.052,4310.99C462.969,4311.95 464.7,4313.26 466.147,4314.84C473.327,4322.67 481.158,4329.96 487.573,4338.43L533.951,4403.78L535.806,4402.32C537.088,4401.31 537.159,4399.25 537.611,4397.55C539.134,4391.8 539.11,4386.15 539.11,4386.15C539.065,4379.68 542.592,4373.71 548.282,4370.63C553.972,4367.54 560.898,4367.85 566.295,4371.42C566.295,4371.42 573.726,4376.28 579.335,4384.11C584.017,4390.65 587.249,4398.97 586.533,4408.05C585.84,4416.85 581.711,4427.32 568.106,4437.2C556.776,4445.42 550.968,4452.13 549.769,4453.58C547.538,4460.71 540.881,4465.84 533.057,4465.84L460.027,4465.84C458.498,4465.79 456.886,4465.22 455.407,4465.22C454.343,4465.22 453.04,4465.69 451.953,4465.8L450.767,4465.84ZM550.521,4449.68L550.524,4449.67C550.538,4449.42 550.557,4449.17 550.566,4448.92L550.521,4449.68ZM533.057,4448.32C533.057,4448.32 533.286,4440.82 557.816,4423.02C583.913,4404.08 556.629,4386.03 556.629,4386.03C556.629,4386.03 556.782,4408.06 546.68,4416.06C534.358,4425.81 530.044,4428.54 530.044,4428.54L473.286,4348.57L453.229,4326.67C446.728,4331.26 455.951,4342.32 455.951,4342.32C455.951,4342.32 458.855,4342.32 452.234,4342.32C445.613,4342.32 443.876,4351.8 443.876,4351.8L424.568,4351.8C424.568,4370.28 447.483,4374.59 447.483,4374.59C447.483,4374.59 443.319,4384.33 446.364,4390.68C449.408,4397.02 458.322,4405.69 458.322,4405.69L441.609,4435.94C428.225,4435.94 426.812,4448.32 426.812,4448.32L450.767,4448.32L470.129,4414.7C475.32,4421.7 484.323,4427.09 485.703,4435.7C485.978,4437.41 476.629,4435.41 472.606,4435.73C466.082,4436.26 461.915,4442.69 460.027,4448.32L533.057,4448.32ZM456.037,4324.85L456.064,4324.85L455.951,4324.8L456.037,4324.85Z"/>
                </g>
            </g>
        </g>
    </g>
</svg>
